<svg xmlns="http://www.w3.org/2000/svg" width="151" height="26" viewBox="0 0 151 26">
    <path fill="#606994" fill-rule="evenodd" d="M98.243 11.345c-1.708 0-3.233-.277-4.563.127-.593.18-.798 1.731-1.176 2.662-.099.244-.177.498-.279.741-.243.584-.033.888.553.896 1.064.014 2.13.03 3.19-.03.285-.016.706-.236.807-.477.516-1.232.947-2.5 1.468-3.919zM22.228 21.722l2.496.466c.782.119 6.384.282 8.325-.197 2.44-.602 3.938-2.21 4.848-4.297-.811-.404-1.522-1.025-1.936-1.93-.069-.15-.485-.957 0-.478.457.164 1.022-.157 1.456 0 1.767.636 2.427 1.915 5.34 2.448-.296.55-2.217.846-3.997.301-1.048 2.282-2.925 3.762-5.593 4.42-1.14.281-7.53.626-8.443.488l-4.719-.716c-2.335-.011-4.787-.132-7.26.211 2.586.386 6.001.713 9.14.99 9.223.478 26.535 1.54 35.432 1.436 24.339-.283 47.942-3.537 71.755-8.797 5.906-1.304 12.308-.476 18.483-.606 3.814-.08 7.63-.118 11.445-.175v.533c-16.745 4.53-64.73 9.244-76.444 9.524-16.723.4-36.402.958-64.553-1.437h-.013c-5.976-.528-6.286-.482-7.761-.938-.809.236-1.616.542-2.419.938-.22.11-1.456-.479 0-1.436.138-.055.295-.108.467-.159-1.888-.684-4.383-1.735-5.7-2.895C.744 17.8.53 16.554.53 15.765c0-1.058.858-1.34 2.095-.934l-.307.91c-.704-.233-.817.284-.817.503 0 .473.47 3.731 8.486 5.674.932-.178 1.83-.315 2.192-.406 3.393-.859 3.94-1.147 7.32-2.056 1.693-.456 2.747-1.393 2.387-3.212-.143-.724-.32-1.364-.375-2.121a9.474 9.474 0 0 1 .19-2.607c.331-1.487.104-2.184-.596-2.935-.407-.438-1.617-1.315-2.253-1.713-2.89-1.808-5.59-3.944-8.37-5.942.048-.13-.203-.008-.245-.487-.041-.479 1.456-.479 3.398 0 5.608 1.242 7.077.889 12.62 2.395 2.177.592 6.794 2.394 6.309 5.268-.324.569-.486.888-.486.958 0 .143.324.143.971 0 1.473-.199 2.427 0 3.398.479.173.085.364.3.485.479 0 1.348-2.336 1.646-2.912 3.352-.207.612 1.267 1.577.97 1.916-.21.24-.94-.154-1.456 0-.466.138-.75.827-.485.958 1.715.846 1.456 2.873.97 3.212-1.741-1.72-4.415-1.88-6.794-1.297-1.598.392-2.838.585-4.417 1.942-.365.314-.48 1.058-.58 1.621zM96.5 8.602c1.475 0 2.951-.056 4.422.014 1.984.093 2.389.77 1.723 2.704-.58 1.685-1.157 3.372-1.759 5.049-.701 1.957-1.828 2.748-3.846 2.747-2.506-.002-5.012.007-7.518-.006-1.659-.01-2.456-1.066-1.971-2.692a127.6 127.6 0 0 1 1.833-5.626c.51-1.459 1.624-2.194 3.137-2.196l1.99-.002h1.99v.008zM55.352 21.991L53.64 11.288l-.234-.12-2.881 4.617h3.322c-.62 1.02-1.11 1.858-1.637 2.67-.1.156-.34.3-.518.302-2.257.02-4.514.013-6.994.013 2.159-3.392 4.18-6.593 6.243-9.765.155-.238.593-.378.905-.388 1.385-.042 2.774-.058 4.157.01.299.015.786.372.84.646.831 4.192 1.605 8.396 2.415 12.718h-3.906zm11.391-2.89c.262-1.03.454-1.88.697-2.716.205-.705.238-1.383-.62-1.511-.78-.117-1.763-.543-2.18.68-.319.936-.656 1.866-.931 2.815-.167.573-.464.77-1.047.746-1.075-.045-2.154-.013-3.404-.013.763-2.206 1.458-4.284 2.224-6.335.084-.225.571-.406.875-.413 1.792-.04 3.586.01 5.377-.05.334-.011.656-.386.983-.592-.315-.176-.628-.497-.947-.505-1.89-.049-3.783-.024-5.823-.024.294-.853.466-1.515.757-2.12.11-.23.49-.457.75-.46a341.53 341.53 0 0 1 8.625.01c1.352.021 2.05 1.14 1.608 2.455-.205.612-.38 1.251-.693 1.806-.356.632-.85 1.183-1.184 1.633 0 .567.12 1.153-.02 1.665-.8 2.93-.821 2.924-3.789 2.929h-1.258zm38.129-7.84c-.029-.174-.048-.214-.039-.246.624-2.223.624-2.226 2.92-2.223 2.3.003 4.6 0 6.9.022 1.514.013 2.202.999 1.717 2.411-.214.622-.356 1.283-.67 1.853-.3.545-.778.994-1.104 1.394 0 .493.118 1.053-.02 1.543-.803 2.854-.823 2.848-3.771 2.852h-1.337c.285-.953.53-1.785.784-2.616.185-.607.278-1.253-.532-1.397-.776-.138-1.747-.58-2.209.539a28.62 28.62 0 0 0-.937 2.695c-.173.578-.457.826-1.103.792-1.062-.055-2.129-.015-3.31-.015.71-2.1 1.35-4.077 2.076-6.022.09-.24.628-.44.965-.448 1.706-.045 3.415.016 5.119-.05.412-.015.81-.369 1.214-.567-.388-.173-.773-.482-1.166-.493-1.812-.054-3.626-.024-5.497-.024zm-16.6-2.454c-1.828 2.643-3.684 4.946-5.107 7.501-1.171 2.103-2.603 2.94-4.877 2.578-.833-.132-1.702-.021-2.688-.021l-1.686-9.993h4.196l.687 6.856c1.25-1.715 2.507-3.124 3.396-4.746.997-1.817 2.31-2.496 4.252-2.187.513.082 1.05.012 1.828.012z"/>
</svg>
