<svg xmlns="http://www.w3.org/2000/svg" width="153" height="16" viewBox="0 0 153 16">
    <path fill="#606994" fill-rule="evenodd" d="M152.352.18l-4.137 11.083h-8.918L143.434.18h8.918zM71.321 6.57h12.964c5.86 0 6.533 4.475 6.533 4.475l-.231.614H74.905l.652-1.637h10.16c.132-.502-.829-1.662-2.668-1.662h-8.242l-2.685 6.75h-4.288l3.487-8.54zm-63.488 0l16.452.008-3.493 8.532h-4.347l1.397-3.423H5.628L4.23 15.11H.09l2.284-5.587S4.323 6.57 7.833 6.57zm10.682 3.482l.596-1.48H9.044c-2.007 0-2.588 1.098-2.588 1.098l-.156.382h12.215zM98.56 6.57l16.452.008-3.493 8.532h-4.347l1.398-3.423H96.355l-1.397 3.423h-4.14l2.285-5.587S95.05 6.57 98.56 6.57zm10.682 3.482l.596-1.48H99.772c-2.008 0-2.59 1.098-2.59 1.098l-.154.382h12.214zM47.27 6.57l-9.114 3.939 6.352 4.601h-7.719l-3.563-2.556-5.887 2.556h-5.472l9.112-4.142L25.35 6.57h6.867l3.564 2.634 6.015-2.634h5.473zm21.775.007l-2.283 5.58s-1.954 2.953-5.481 2.953H44.85s1.395-3.37 1.4-3.374l.91-2.213s1.954-2.953 5.48-2.953l16.404.007zM51.45 9.668l-1.43 3.474h10.136c1.29 0 2.52-1.15 2.52-1.15l1.404-3.423H53.712c-1.549 0-2.261 1.1-2.261 1.1zm85.336 1.392l-.26.598h-2.564c1.112 1.015 1.245 2.726 1.135 3.452h-5.108c.083-.847-.08-3.452-2.323-3.452h-6.801l.648-1.636h10.15c.133-.502-.827-1.662-2.664-1.662h-8.233l-2.683 6.75h-4.281l3.482-8.54h12.95c5.853 0 6.552 4.49 6.552 4.49z"/>
</svg>
