<svg xmlns="http://www.w3.org/2000/svg" width="121" height="19" viewBox="0 0 121 19">
    <path fill="#fff" fill-rule="evenodd" d="M3.158 14.25l-.075.369a.164.164 0 0 1-.16.125H.134c-.092 0-.134-.041-.134-.134 0-.008 0-.017.009-.067l1.184-5.582a.162.162 0 0 1 .16-.126h.738c.093 0 .135.042.135.134 0 .017 0 .025-.009.067l-1.066 5.022h1.881c.092 0 .135.042.135.134 0 .008 0 .016-.01.058zm4.158-2.686l-.504 2.36c-.075.36-.185.51-.453.67-.202.117-.79.259-1.302.259-.873 0-1.545-.36-1.545-1.013 0-1.297 1.68-1.59 2.78-1.783l.117-.569c.026-.134.026-.15.026-.192 0-.31-.194-.486-.496-.486-.42 0-.722.285-.907.661-.084.176-.252.277-.479.277-.21 0-.361-.126-.361-.318 0-.436.672-1.13 1.931-1.13.706 0 1.218.352 1.218.996 0 .05-.008.167-.025.268zm-2.872 2.2c0 .327.226.57.697.57.32 0 .697-.126.772-.485l.286-1.331c-.756.134-1.755.443-1.755 1.247zm7.232-3.155l-.723 3.398c-.067.327-.184.461-.42.578-.26.134-.78.26-1.428.26-.696 0-1.52-.268-1.52-1.072 0-.083.017-.234.042-.334l.605-2.905a.164.164 0 0 1 .16-.126h.655c.092 0 .134.043.134.134 0 .017 0 .026-.008.067l-.596 2.854a1.258 1.258 0 0 0-.026.243c0 .335.26.553.647.553.52 0 .781-.185.857-.536l.68-3.189a.163.163 0 0 1 .16-.126h.646c.093 0 .143.043.143.134 0 .017 0 .026-.008.067zm4.048 1.047l-.638 2.963a.163.163 0 0 1-.16.125h-.655c-.092 0-.134-.041-.134-.134 0-.017 0-.025.008-.067l.622-2.913c.017-.083.034-.183.034-.234 0-.335-.219-.577-.74-.577-.68 0-.798.284-.856.544l-.706 3.256a.164.164 0 0 1-.16.125h-.655c-.092 0-.134-.041-.134-.134 0-.017 0-.025.009-.067l.747-3.473c.059-.276.168-.394.445-.52.302-.133.806-.25 1.411-.25.966 0 1.596.368 1.596 1.07 0 .085-.017.193-.034.286zm3.596.167c-.218 0-.353-.117-.395-.376-.042-.268-.177-.62-.621-.62-.781 0-1.36 1.147-1.36 2.11 0 .652.268 1.13.898 1.13.512 0 .865-.394 1.108-.712.067-.093.152-.142.244-.142.11 0 .185.075.185.2 0 .344-.63 1.44-1.856 1.44-.815 0-1.512-.569-1.512-1.64 0-1.557.966-2.913 2.393-2.913.966 0 1.386.661 1.386 1.063 0 .234-.126.46-.47.46zm4.426-.201l-.63 2.997a.163.163 0 0 1-.16.125h-.654c-.093 0-.134-.041-.134-.134 0-.008 0-.017.008-.067l.596-2.854a1.64 1.64 0 0 0 .034-.226c0-.385-.269-.577-.622-.577-.378 0-.697.15-.94.368l-.723 3.365a.163.163 0 0 1-.16.125h-.654c-.093 0-.135-.041-.135-.134 0-.017 0-.025.009-.067l1.302-6.076a.163.163 0 0 1 .16-.126h.654c.093 0 .135.042.135.134 0 .017 0 .034-.009.075l-.462 2.201a1.917 1.917 0 0 1 1.218-.443c.655 0 1.201.376 1.201 1.03 0 .066-.017.2-.034.284zm1.69-1.942c-.294 0-.488-.184-.488-.393 0-.285.27-.511.63-.511.294 0 .487.176.487.385 0 .277-.26.52-.63.52zm.252.93l-.858 4.009a.163.163 0 0 1-.159.125h-.647c-.092 0-.142-.041-.142-.134 0-.008 0-.017.008-.067l.857-4.009a.163.163 0 0 1 .16-.126h.654c.093 0 .135.043.135.134 0 .017 0 .026-.008.067zm4.09 1.046l-.639 2.963a.163.163 0 0 1-.16.125h-.654c-.092 0-.134-.041-.134-.134 0-.017 0-.025.008-.067l.622-2.913c.016-.083.033-.183.033-.234 0-.335-.218-.577-.74-.577-.68 0-.797.284-.856.544l-.705 3.256a.163.163 0 0 1-.16.125h-.655c-.092 0-.134-.041-.134-.134 0-.017 0-.025.008-.067l.747-3.473c.06-.276.168-.394.446-.52.302-.133.806-.25 1.41-.25.966 0 1.596.368 1.596 1.07 0 .085-.016.193-.033.286zm4.393-.486l-.722 3.398c-.312 1.473-1.05 2.218-2.327 2.218-1.041 0-1.604-.586-1.604-1.03 0-.25.185-.443.445-.443.21 0 .344.092.437.293.16.335.361.578.848.578.479 0 1.008-.485 1.184-1.34l.101-.468c-.202.159-.638.46-1.226.46-.798 0-1.276-.628-1.276-1.448 0-.845.318-1.75.923-2.343a2.496 2.496 0 0 1 1.797-.745c.605 0 1.042.142 1.235.276.143.1.21.226.21.376 0 .068-.009.135-.025.218zm-1.512-.343c-.336 0-.722.184-1.042.594-.377.486-.587 1.239-.587 1.858 0 .603.302.904.739.904.352 0 .688-.184.873-.334l.555-2.553c.008-.05.016-.1.016-.126 0-.184-.134-.343-.554-.343zm8.282-2.252l-1.15 5.382c-.068.302-.177.478-.446.628-.252.143-.772.268-1.302.268-1.125 0-1.788-.661-1.788-1.64 0-.812.327-1.6.865-2.177.42-.452.999-.728 1.654-.728.395 0 .697.134.798.21l.436-2.051a.164.164 0 0 1 .16-.126h.647c.092 0 .143.042.143.134 0 .017 0 .025-.017.1zM38.85 10.82c-.387 0-.748.209-1.034.585a3.162 3.162 0 0 0-.579 1.75c0 .753.437 1.113.907 1.113.42 0 .664-.184.722-.46l.605-2.813c-.11-.092-.302-.175-.621-.175zm4.62.51c-.454 0-.345-.502-.79-.502-.31 0-.571.159-.63.427l-.722 3.364a.164.164 0 0 1-.16.126h-.655c-.092 0-.134-.041-.134-.134 0-.008 0-.025.008-.066l.747-3.474c.06-.277.168-.402.446-.528.277-.125.781-.243 1.293-.243.697 0 1.016.277 1.016.578 0 .26-.15.452-.42.452zm3.846.67c-.042.15-.134.2-.277.226l-2.57.402a4.72 4.72 0 0 0-.017.334c0 .57.22 1.13.941 1.13.53 0 .94-.401 1.201-.72.067-.083.16-.142.252-.142a.18.18 0 0 1 .185.184c0 .36-.664 1.44-1.907 1.44-.915 0-1.587-.603-1.587-1.649 0-1.481.899-2.904 2.419-2.904.881 0 1.41.619 1.41 1.314 0 .134-.016.276-.05.385zm-1.511-1.172c-.672 0-1.1.67-1.268 1.322l1.897-.31c.017-.1.026-.208.026-.292 0-.41-.177-.72-.655-.72zm5.291.737l-.504 2.36c-.076.36-.185.51-.453.67-.202.117-.79.259-1.302.259-.874 0-1.546-.36-1.546-1.013 0-1.297 1.68-1.59 2.78-1.783l.118-.569c.025-.134.025-.15.025-.192 0-.31-.193-.486-.495-.486-.42 0-.722.285-.907.661-.084.176-.252.277-.48.277-.209 0-.36-.126-.36-.318 0-.436.672-1.13 1.931-1.13.706 0 1.218.352 1.218.996 0 .05-.008.167-.025.268zm-2.872 2.2c0 .327.227.57.697.57.319 0 .697-.126.773-.485l.285-1.331c-.756.134-1.755.443-1.755 1.247zm9.407-2.117L57 14.618a.163.163 0 0 1-.16.126h-.647c-.092 0-.142-.041-.142-.134 0-.008 0-.016.008-.067l.622-2.912c.016-.084.034-.185.034-.26 0-.36-.22-.552-.63-.552-.504 0-.79.31-.89.795l-.648 3.004a.163.163 0 0 1-.159.126h-.647c-.092 0-.134-.041-.134-.134 0-.016 0-.025.008-.067l.622-2.912c.017-.076.034-.201.034-.26 0-.351-.228-.552-.63-.552-.48 0-.756.15-.849.577l-.688 3.222a.164.164 0 0 1-.16.126h-.655c-.092 0-.134-.041-.134-.134 0-.008 0-.025.008-.067l.74-3.473c.066-.293.184-.41.444-.52a3.507 3.507 0 0 1 1.319-.25c.646 0 1.058.2 1.268.502.344-.302.773-.503 1.427-.503.69 0 1.302.344 1.302 1.039 0 .108-.016.217-.033.31zm3.235-.042c-.193 0-.336-.1-.387-.317-.067-.268-.218-.52-.571-.52-.512 0-.756.386-.756.737 0 .795 1.772.728 1.772 1.825 0 .828-.672 1.523-1.805 1.523-1.017 0-1.436-.636-1.436-1.02 0-.252.168-.436.445-.436.227 0 .352.109.411.326.093.343.244.586.655.586.446 0 .781-.41.781-.795 0-.82-1.738-.77-1.738-1.808 0-.778.647-1.406 1.73-1.406.932 0 1.319.544 1.319.895 0 .235-.152.41-.42.41zm5.401 0c-.193 0-.336-.1-.386-.317-.068-.268-.219-.52-.572-.52-.512 0-.755.386-.755.737 0 .795 1.772.728 1.772 1.825 0 .828-.672 1.523-1.806 1.523-1.016 0-1.436-.636-1.436-1.02 0-.252.168-.436.445-.436.227 0 .353.109.412.326.092.343.243.586.654.586.446 0 .782-.41.782-.795 0-.82-1.738-.77-1.738-1.808 0-.778.646-1.406 1.73-1.406.932 0 1.318.544 1.318.895 0 .235-.151.41-.42.41zm1.94-1.925c-.293 0-.487-.184-.487-.393 0-.285.27-.511.63-.511.294 0 .487.176.487.385 0 .277-.26.52-.63.52zm.253.93l-.858 4.009a.163.163 0 0 1-.159.125h-.647c-.092 0-.142-.041-.142-.134 0-.008 0-.017.008-.067l.857-4.009a.163.163 0 0 1 .16-.126h.654c.093 0 .135.043.135.134 0 .017 0 .026-.008.067zm4.09 1.046l-.639 2.963a.163.163 0 0 1-.16.125h-.654c-.092 0-.134-.041-.134-.134 0-.017 0-.025.008-.067l.622-2.913c.016-.083.033-.183.033-.234 0-.335-.218-.577-.739-.577-.68 0-.798.284-.857.544l-.705 3.256a.164.164 0 0 1-.16.125h-.655c-.092 0-.134-.041-.134-.134 0-.017 0-.025.008-.067l.747-3.473c.06-.276.168-.394.446-.52.302-.133.806-.25 1.41-.25.966 0 1.596.368 1.596 1.07 0 .085-.016.193-.033.286zm3.596.167c-.22 0-.354-.117-.395-.376-.042-.268-.177-.62-.622-.62-.781 0-1.36 1.147-1.36 2.11 0 .652.268 1.13.899 1.13.512 0 .864-.394 1.108-.712.067-.093.15-.142.243-.142.11 0 .185.075.185.2 0 .344-.63 1.44-1.856 1.44-.814 0-1.512-.569-1.512-1.64 0-1.557.966-2.913 2.394-2.913.966 0 1.386.661 1.386 1.063 0 .234-.126.46-.47.46zm4.224.176c-.042.15-.134.2-.277.226l-2.57.402a4.72 4.72 0 0 0-.017.334c0 .57.22 1.13.941 1.13.53 0 .94-.401 1.201-.72.068-.083.16-.142.252-.142a.18.18 0 0 1 .185.184c0 .36-.664 1.44-1.907 1.44-.915 0-1.587-.603-1.587-1.649 0-1.481.899-2.904 2.419-2.904.882 0 1.41.619 1.41 1.314 0 .134-.016.276-.05.385zm-1.511-1.172c-.672 0-1.1.67-1.268 1.322l1.897-.31c.018-.1.026-.208.026-.292 0-.41-.176-.72-.655-.72zm10.875-5.87l-2.04 9.488a.389.389 0 0 1-.38.3h-1.5c-.22 0-.32-.1-.32-.32 0-.04 0-.08.02-.179l1.5-7.076c-1.06.577-2.54.936-3.08.936-.36 0-.58-.219-.58-.558 0-.358.22-.618.639-.717 1.5-.38 3.16-1.117 4.5-2.313.24-.22.46-.299.74-.299.34 0 .54.18.54.459 0 .06 0 .08-.04.279zm21.06-3.27c-2.58.579-5.36 2.293-6.7 5.422.78-.517 1.74-.936 2.92-.936 2 0 3.22 1.355 3.22 3.31 0 3.049-2.18 5.54-5.42 5.54-2.501 0-3.801-1.674-3.801-4.006 0-2.85 1.24-5.502 3.26-7.456 2.34-2.252 5.26-3.17 6.52-3.17.52 0 .74.22.74.579s-.24.598-.74.718zm-4.64 5.86c-.92 0-1.92.38-2.56.858-.281.997-.44 1.954-.44 2.751 0 1.456.52 2.452 1.9 2.452 1.9 0 3.04-2.292 3.04-3.987 0-1.176-.6-2.073-1.94-2.073zm-9.28 8.055c-2.34 2.252-5.24 3.169-6.501 3.169-.52 0-.74-.22-.74-.578 0-.36.24-.578.74-.698 2.58-.578 5.34-2.292 6.68-5.422-.78.518-1.76.917-2.92.917-2 0-3.22-1.355-3.22-3.309 0-3.03 2.18-5.541 5.42-5.541 2.48 0 3.8 1.674 3.8 4.026 0 2.83-1.24 5.482-3.26 7.436zm-.76-10.087c-1.9 0-3.04 2.293-3.04 3.987 0 1.196.6 2.053 1.94 2.053.92 0 1.92-.359 2.56-.837.28-.997.44-1.934.44-2.731 0-1.455-.52-2.472-1.9-2.472zm21.32 10.087c-2.34 2.252-5.24 3.169-6.501 3.169-.52 0-.74-.22-.74-.578 0-.36.24-.578.74-.698 2.58-.578 5.34-2.292 6.68-5.422-.78.518-1.76.917-2.92.917-2 0-3.22-1.355-3.22-3.309 0-3.03 2.18-5.541 5.42-5.541 2.48 0 3.8 1.674 3.8 4.026 0 2.83-1.24 5.482-3.26 7.436zm-.76-10.087c-1.9 0-3.04 2.293-3.04 3.987 0 1.196.6 2.053 1.94 2.053.92 0 1.92-.359 2.56-.837.28-.997.44-1.934.44-2.731 0-1.455-.52-2.472-1.9-2.472z"/>
</svg>
