<svg xmlns="http://www.w3.org/2000/svg" width="36" height="27" viewBox="0 0 36 27">
    <path fill="#FFF" fill-rule="evenodd" d="M35.79 5.977c.14 2.53.21 5.039.21 7.523s-.07 4.992-.21 7.523c0 1.594-.505 2.942-1.513 4.043-1.007 1.102-2.238 1.653-3.691 1.653C26.976 26.906 22.78 27 18 27c-4.781 0-8.977-.094-12.586-.281-1.453 0-2.684-.551-3.691-1.653C.715 23.965.21 22.617.21 21.023.07 18.493 0 15.984 0 13.5c0-1.64.094-4.148.281-7.523 0-1.594.492-2.942 1.477-4.043C2.742.832 3.96.28 5.414.28 8.836.094 12.82 0 17.367 0h1.266c4.547 0 8.531.094 11.953.281 1.453 0 2.684.551 3.691 1.653 1.008 1.101 1.512 2.449 1.512 4.043zM14.554 20.39L24.75 13.5 14.555 6.54v13.85z"/>
</svg>
