<svg xmlns="http://www.w3.org/2000/svg" width="12" height="12" viewBox="0 0 12 12">
    <path fill="#211300" fill-rule="evenodd" d="M11.037.941L9.003 9.148c-.197.806-.471 1.23-1.148 1.612-.995.552-2.765.721-3.828.721-1.682 0-4.133-.466-4.009-2.841.015-.276.068-.552.14-.807L1.904.666C1.978.39 2.2.22 2.452.22h2.552c.25 0 .397.17.383.446-.005.085-.03.19-.053.275L3.61 7.982c-.025.127-.05.233-.057.36-.03.573.381.849.864.849.697 0 1.16-.36 1.31-.997L7.59.666C7.664.39 7.885.22 8.136.22h2.572c.251 0 .398.17.383.446-.005.085-.029.19-.054.275"/>
</svg>
