<svg xmlns="http://www.w3.org/2000/svg" width="12" height="23" viewBox="0 0 12 23">
    <path fill="#211300" fill-rule="evenodd" d="M11.078 6.607l-.336 1.354c-.077.354-.418.676-.83.676H7.769l-2.21 9.057c-.073.29-.12.612-.13.805-.05.967.465 1.225 1.2 1.225.176 0 .354-.032.5-.032.5 0 .745.386.717.902-.067 1.289-1.782 2.062-3.781 2.062-1.763 0-4.106-.74-3.945-3.803.027-.515.107-.901.184-1.256l2.203-8.96H1.243c-.383 0-.603-.29-.58-.709.003-.064.04-.226.078-.387l.335-1.353c.078-.355.39-.677.8-.677h1.382l.484-1.934c.145-.547.308-.838.698-.999L8.522.967C8.762.87 9 .805 9.089.805c.323 0 .487.226.472.517-.001.032-.005.096-.042.257l-.97 3.932h2.027c.382 0 .604.258.582.677-.003.064-.007.129-.08.419"/>
</svg>
