<svg xmlns="http://www.w3.org/2000/svg" width="14" height="18" viewBox="0 0 14 18">
    <path fill="#211300" fill-rule="evenodd" d="M12.84 7.111l-4.177 4.03 1.972 5.195c.033.085.081.276.075.403-.015.297-.218.467-.469.467H7.475c-.386 0-.476-.128-.593-.488l-1.118-3.393a7.75 7.75 0 0 1-.276-1.38H5.45L4.27 16.76c-.073.276-.295.446-.546.446H1.191c-.251 0-.397-.17-.383-.446.005-.085.029-.19.054-.276L4.59 1.427c.071-.275.293-.445.544-.445H7.65c.251 0 .397.17.383.445-.005.085-.03.191-.054.276L5.79 10.631h.039L9.542 6.56c.185-.211.384-.339.656-.339h2.493c.233 0 .418.149.404.425-.008.17-.174.381-.256.466"/>
</svg>
