<svg xmlns="http://www.w3.org/2000/svg" width="11" height="13" viewBox="0 0 11 13">
    <path fill="#43559C" fill-rule="evenodd" d="M8.704 5.313c-.735 0-1.134-.487-1.247-1.293-.086-.594-.271-1.103-.909-1.103-1.218 0-2.23 2.311-2.326 4.157C4.15 8.452 4.56 9.47 5.74 9.47c.87 0 1.561-.637 2.052-1.146.286-.275.503-.381.774-.381.387 0 .662.275.634.806-.072 1.378-1.801 3.753-4.798 3.753-2.205 0-3.8-1.675-3.66-4.347.21-3.987 2.584-7.231 6.2-7.231 2.398 0 3.496 1.569 3.434 2.757-.04.763-.492 1.632-1.672 1.632"/>
</svg>
