<svg xmlns="http://www.w3.org/2000/svg" width="6" height="5" viewBox="0 0 6 5">
    <path fill="#211300" fill-rule="evenodd" d="M2.671 2.622H2.9c.281 0 .422-.1.422-.305 0-.228-.146-.322-.457-.322H2.67v.627zm.299-1.031c.673 0 1.013.24 1.013.68 0 .304-.181.538-.497.632l.521 1.03h-.709l-.439-.93h-.188v.93h-.644V1.591h.943zM1.717 1.55c-.345.346-.528.79-.528 1.26 0 .456.17.877.498 1.212.334.345.774.532 1.242.532.457 0 .896-.175 1.236-.504.334-.321.515-.76.515-1.24 0-.47-.17-.897-.492-1.224a1.719 1.719 0 0 0-1.253-.528c-.474 0-.89.17-1.218.492zm2.752-.235c.393.399.598.926.598 1.494 0 .592-.222 1.124-.633 1.517-.421.404-.954.62-1.505.62a2.095 2.095 0 0 1-1.517-.65A2.116 2.116 0 0 1 .798 2.81c0-.568.228-1.118.65-1.534A2.066 2.066 0 0 1 2.929.67c.591 0 1.131.223 1.54.644z"/>
</svg>
