<svg xmlns="http://www.w3.org/2000/svg" width="17" height="18" viewBox="0 0 17 18">
    <path fill="#211300" fill-rule="evenodd" d="M5.933 13.048c-.054 1.031.531 1.644 1.59 1.644.793 0 1.607-.387 1.834-1.354l1.005-4.029c-2.521.42-4.326 1.773-4.429 3.739M16.39 5.346l-2.094 8.54c-.337 1.386-.757 2.094-1.876 2.708-.968.547-3.406 1.062-5.405 1.062-3.144 0-6.352-1.062-6.193-4.093.26-4.962 5.723-5.994 10.143-6.767l.524-2.16c.04-.193.044-.29.05-.387.043-.837-.433-1.256-1.14-1.256-1.028 0-1.712.709-2.295 1.74-.55.967-1.46 1.514-2.666 1.514-1.087 0-1.876-.644-1.819-1.74C3.736 2.251 6.585.06 11.668.06c2.999 0 5.008 1.483 4.864 4.223-.021.418-.103.87-.143 1.064"/>
</svg>
