<svg xmlns="http://www.w3.org/2000/svg" width="22" height="23" viewBox="0 0 22 23">
    <path fill="#242E49" fill-rule="evenodd" stroke="#242E49" d="M20.42 19.862l-.678.679a.34.34 0 0 1-.48 0l-3.442-3.442a.337.337 0 0 1 0-.48l.388-.389.29-.29a.337.337 0 0 1 .481 0l3.442 3.441a.34.34 0 0 1 0 .48M9 15.84a6.728 6.728 0 0 1-6.72-6.72A6.728 6.728 0 0 1 9 2.4a6.728 6.728 0 0 1 6.72 6.72A6.728 6.728 0 0 1 9 15.84m12.12 2.97l-3.532-3.516a1.228 1.228 0 0 0-.873-.36c-.322 0-.625.124-.856.346l-1.129-1.123a7.59 7.59 0 0 0 1.942-5.075c0-4.214-3.443-7.642-7.676-7.642-4.233 0-7.676 3.428-7.676 7.642s3.443 7.642 7.676 7.642c1.96 0 3.751-.735 5.11-1.943l1.126 1.122-.086.085c-.233.232-.36.54-.36.869 0 .328.127.636.36.868l3.532 3.516c.24.24.556.359.872.359.316 0 .632-.12.872-.36l.697-.693a1.226 1.226 0 0 0 0-1.737"/>
</svg>
