<svg xmlns="http://www.w3.org/2000/svg" width="16" height="18" viewBox="0 0 16 18">
    <path fill="#211300" fill-rule="evenodd" d="M13.176 5.764c-.97 0-1.68-.483-1.95-1.514-.246-.903-.655-1.515-1.536-1.515-1.117 0-1.782.902-1.834 1.9-.149 2.838 6.134 2.418 5.899 6.898-.173 3.287-2.79 6.123-7.522 6.123-4.027 0-5.757-2.32-5.663-4.124.072-1.354.944-2.289 2.355-2.289 1.117 0 1.732.58 2.061 1.612.33.999.71 1.611 1.679 1.611 1 0 1.781-.902 1.835-1.934.147-2.804-5.919-2.578-5.698-6.8C2.971 2.51 5.509.06 10.124.06c3.556 0 5.337 1.901 5.25 3.577-.064 1.193-.905 2.127-2.198 2.127"/>
</svg>
