<svg xmlns="http://www.w3.org/2000/svg" width="20" height="24" viewBox="0 0 20 24">
    <path fill="#211300" fill-rule="evenodd" d="M11.854 3.546c-.53 0-.915.064-1.183.128l-1.53 6.221c.204.032.554.064.965.064 2.587 0 4.06-2.32 4.162-4.254.071-1.353-.651-2.159-2.414-2.159m-2.422 9.185c-.47 0-.794.032-1.002.064l-1.717 6.962c.261.064.67.097 1.2.097 3.204 0 4.419-2.45 4.524-4.448.09-1.708-.918-2.675-3.005-2.675m5.168-1.58l-.004.065c1.943.516 3.582 2.321 3.45 4.835-.157 2.997-2.094 7.445-10.794 7.445-2.88 0-5.51-.323-6.144-.548-.375-.129-.503-.484-.486-.806.005-.097.047-.322.084-.483L5.632 1.677c.116-.516.363-.741.931-.935.747-.225 3.116-.58 5.615-.58 5.731 0 7.848 2.224 7.71 4.866-.177 3.385-2.474 5.156-5.288 6.124"/>
</svg>
