<svg xmlns="http://www.w3.org/2000/svg" width="16" height="12" viewBox="0 0 16 12">
    <path fill="#CCC3B2" fill-rule="evenodd" d="M15.72 2.683a58.812 58.812 0 0 1 0 6.525c0 .691-.218 1.276-.655 1.753-.437.478-.97.717-1.601.717-1.565.081-3.385.122-5.458.122-2.074 0-3.893-.04-5.458-.122-.63 0-1.164-.239-1.6-.717C.51 10.484.29 9.9.29 9.208A58.812 58.812 0 0 1 .2 5.946c0-.712.04-1.8.122-3.263 0-.691.213-1.276.64-1.753A2.042 2.042 0 0 1 2.548.213 96.145 96.145 0 0 1 7.732.091h.548c1.972 0 3.7.04 5.184.122.63 0 1.164.239 1.6.717.438.477.656 1.062.656 1.753zm-9.208 6.25l4.421-2.987-4.421-3.02v6.008z"/>
</svg>
