<svg xmlns="http://www.w3.org/2000/svg" width="13" height="13" viewBox="0 0 13 13">
    <path fill="#FFF" fill-rule="evenodd" d="M1.499 10.791L.029 6.785a.627.627 0 0 1 .029-.49c.038-.116.163-.212.374-.289l1.096-.374V2.807c0-.327.125-.615.374-.865.25-.25.538-.375.865-.375h1.845L5.073.04H7.84l.461 1.527h1.845c.327 0 .615.125.865.375s.375.538.375.865v2.825l1.095.374c.211.077.336.173.375.289.077.192.086.355.029.49l-1.47 4.006h-.03c-.903 0-1.729-.413-2.478-1.24-.75.827-1.566 1.24-2.45 1.24-.903 0-1.72-.403-2.45-1.21-.73.807-1.557 1.21-2.48 1.21H1.5zm1.268-7.984v2.421l3.69-1.182 3.69 1.182V2.807h-7.38zm6.14 7.84c.134.135.307.303.519.504.211.202.59.476 1.138.822.548.346 1.023.519 1.427.519h-.605c-.692 0-1.518-.25-2.48-.75a5.196 5.196 0 0 1-2.45.606 5.196 5.196 0 0 1-2.45-.606c-.96.5-1.787.75-2.478.75H.922c.423 0 .89-.154 1.398-.461.51-.308.918-.615 1.225-.923l.462-.461c.749.519 1.566.778 2.45.778.884 0 1.7-.26 2.45-.778z" opacity=".649"/>
</svg>
