<svg xmlns="http://www.w3.org/2000/svg" width="115" height="61" viewBox="0 0 115 61">
    <path fill="#606994" fill-rule="evenodd" d="M.405 57.908c.553.006 1.107.029 1.66.012.328-.01.44.107.445.441.011.71.05.734.734.734 1.614.001 3.227.002 4.841.001.719 0 .99-.278.991-1.028.003-2.187.001-4.374.001-6.56v-.598h1.845v6.958c0 1.573-.72 2.324-2.288 2.336-2.088.015-4.176.004-6.265.004-.237 0-.48-.031-.71.007-.593.1-1.01-.105-1.254-.665v-1.642zm113.711 0c-.355 1.59-1.647 1.936-2.931 2.16-1.757.305-3.526.257-5.257-.256a5.812 5.812 0 0 1-.836-.332c-.704-.334-1.027-.906-1.02-1.695.01-1.238.001-2.476.004-3.715 0-.14.018-.28.03-.446h1.592c.008.165.024.334.024.502.004 1.254.013 2.509.003 3.763-.004.554.238.941.73 1.124 1.687.63 3.39.698 5.088.037.612-.239.901-.71.893-1.388-.013-1.157-.003-2.315-.002-3.474v-.625h1.682v4.345zM60.89 55.376v4.72c-.54 0-1.04.017-1.538-.014-.087-.005-.233-.207-.234-.318-.014-1.946-.011-3.892-.01-5.838 0-.428.266-.376.517-.265.637.283 1.265.585 1.896.88 2.583 1.207 5.166 2.415 7.75 3.621.138.065.283.114.506.202v-4.738h1.725v6.526c-.294-.08-.555-.113-.782-.219-3.075-1.427-6.144-2.865-9.215-4.298-.181-.084-.368-.155-.615-.259zm-16.017-.003v1.3c0 .997-.01 1.995.004 2.993.005.33-.103.46-.439.441-.423-.025-.85-.006-1.313-.006v-6.534c.25.066.492.092.702.19 3.103 1.443 6.203 2.895 9.303 4.344.183.085.37.158.652.278v-4.78c.548 0 1.018-.016 1.485.016.087.006.232.206.233.318.014 1.947.01 3.894.01 5.84 0 .43-.29.373-.526.283-.428-.165-.838-.376-1.254-.57l-8.31-3.89c-.14-.065-.287-.117-.547-.223zm39.907.82c.087.756.087.758-.572.758-2.074 0-4.148.013-6.222-.01-.46-.004-.617.136-.579.602.038.463.032.934.002 1.399-.026.403.181.437.492.436 2.09-.008 4.18-.004 6.27-.004h.61v.696h-9.085v-6.447c.172-.01.326-.025.479-.025 2.723-.002 5.446-.002 8.17 0 .238 0 .519-.087.526.341.007.427-.252.407-.532.406-2.074-.001-4.148-.002-6.222.001-.218 0-.436.025-.676.039v1.808h7.34zm-60.594 3.885c-.172.009-.311.022-.45.022-2.723.001-5.445-.01-8.167.012-.46.004-.554-.157-.55-.579.018-1.801.019-3.603 0-5.405-.005-.419.114-.544.536-.541 2.753.02 5.507.01 8.261.01h.41c.182.683.141.746-.476.747-2.137.002-4.273.012-6.41-.008-.455-.004-.6.14-.596.604.015 1.264-.004 1.264 1.247 1.264h6.152c.162.703.134.746-.497.747h-6.22c-.67.001-.67.004-.672.702 0 .402.018.805-.004 1.206-.023.401.136.525.525.522 2.105-.015 4.21-.007 6.315-.007h.596v.704zm17.043.022c-.614 0-1.103.017-1.59-.01a.812.812 0 0 1-.451-.203c-.61-.536-1.194-1.103-1.814-1.626a1.148 1.148 0 0 0-.673-.262c-1.85-.02-3.701-.022-5.551.001-.24.003-.513.133-.707.287-.46.365-.918.746-1.311 1.182-.47.519-1.004.727-1.682.638-.258-.035-.525-.006-.788-.006l-.087-.137c.127-.087.266-.16.38-.263 2.154-1.94 4.306-3.883 6.459-5.824.455-.41.589-.404 1.041.01l6.348 5.805c.115.105.225.215.426.408zm-5.157-2.877l.053-.107c-.67-.61-1.34-1.221-2.017-1.822-.065-.057-.235-.094-.283-.053-.713.62-1.415 1.255-2.225 1.982h4.472zm65.528 2.876c-.517 0-1.035.018-1.55-.012-.151-.009-.313-.136-.437-.246-.585-.516-1.145-1.062-1.744-1.561a1.226 1.226 0 0 0-.71-.28c-1.834-.023-3.67-.022-5.504 0a1.237 1.237 0 0 0-.715.27c-.59.484-1.126 1.035-1.719 1.516-.211.171-.518.27-.793.302-.431.05-.873.013-1.427.013.87-.788 1.655-1.5 2.442-2.21 1.477-1.335 2.955-2.669 4.435-4.002.46-.415.6-.417 1.043-.012 2.151 1.967 4.3 3.936 6.452 5.903.09.082.188.154.283.23l-.056.089zm-4.956-2.878c-.135-.156-.206-.254-.293-.334-.54-.497-1.095-.977-1.62-1.49-.257-.25-.43-.216-.669.02-.396.392-.822.753-1.234 1.13-.215.196-.428.396-.728.674h4.544zM57.241.004l3.766 14.448 9.026-4.595.069.077-4.664 8.772 14.552 4.137-14.703 3.875 4.81 9.117-.056.087-9.09-4.737-3.709 14.975-.092.016-3.824-14.992L44.223 36l4.695-9.196-14.57-4 14.614-3.815L44.22 9.78l9.104 4.672L57.15 0l.09.004zM69.23 10.669c-.902.514-7.226 7.144-7.243 7.51.317-.421.671-.292 1.04-.176.557.175 1.13.3 1.68.495.37.132.534.008.697-.316.973-1.93 1.962-3.852 2.945-5.777.295-.578.587-1.157.88-1.736zM45.253 34.715l7-6.916c-.878-.25-1.717-.462-2.535-.737-.396-.133-.56-.01-.731.333-.736 1.475-1.497 2.938-2.247 4.406l-1.487 2.914zM52.526 18.1c.245-.982.45-1.867.69-2.742.103-.372.026-.567-.328-.75-2.111-1.095-4.209-2.218-6.312-3.328-.454-.24-.913-.47-1.37-.705-.026.038-.051.075-.078.112l7.398 7.413zm9.288 9.477c-.23.945-.42 1.819-.663 2.677-.108.382-.036.572.315.755 1.827.948 3.64 1.922 5.459 2.886.748.396 1.497.789 1.95 1.028l-7.06-7.346zm-4.692-5.038l-.123.04c-1.13-1.124-2.252-2.256-3.399-3.36-.154-.149-.45-.253-.655-.218-.964.166-1.918.386-2.876.587-4.835 1.016-9.67 2.031-14.505 3.05-.093.019-.18.066-.269.1l.019.13h21.782c-1.204 1.31-2.313 2.52-3.43 3.723-.187.201-.27.374-.208.677 1.191 5.824 2.365 11.652 3.547 17.478.02.105.087.2.133.3l.108-.027V22.934c.194.18.31.28.418.389 1.027 1.027 2.06 2.048 3.072 3.089.218.224.433.283.719.222 5.684-1.198 11.37-2.394 17.053-3.593.214-.045.422-.12.632-.18l-.025-.143H57.313c1.172-1.216 2.244-2.353 3.348-3.458.288-.288.342-.554.264-.934-1.144-5.572-2.277-11.146-3.415-16.72-.076-.374-.17-.744-.255-1.116l-.133.021v22.027z"/>
</svg>
