<svg xmlns="http://www.w3.org/2000/svg" width="173" height="59" viewBox="0 0 173 59">
    <g fill="none" fill-rule="evenodd">
        <path fill="#43559C" d="M171.853 10.069c-5.624-11.73-44.368-12.88-85.543-5.175 37.71-6.18 70.204-.809 73.67 9.115 3.874 11.085-23.495 25.56-66.559 36.112-23.654 5.795-50.659 8.245-67.484 6.977 17.611 2.202 42.784 1.598 71.34-4.805 47.287-10.602 80.676-29.506 74.576-42.224"/>
        <path fill="#211300" d="M11.854 12.546c-.53 0-.915.064-1.183.128l-1.53 6.221c.204.032.554.064.965.064 2.587 0 4.06-2.32 4.162-4.254.071-1.353-.651-2.159-2.414-2.159m-2.422 9.185c-.47 0-.794.032-1.002.064l-1.717 6.962c.261.064.67.097 1.2.097 3.204 0 4.419-2.45 4.524-4.448.09-1.708-.918-2.675-3.005-2.675m5.168-1.58l-.004.065c1.943.516 3.582 2.321 3.45 4.835-.157 2.997-2.094 7.445-10.794 7.445-2.88 0-5.51-.323-6.144-.548-.375-.129-.503-.484-.486-.806.005-.097.047-.322.084-.483l4.926-19.982c.116-.516.363-.741.931-.935.747-.225 3.116-.58 5.615-.58 5.731 0 7.848 2.224 7.71 4.866-.177 3.385-2.474 5.156-5.288 6.124M29.168 18.121c-.823 0-1.593.678-2.285 2.095-.823 1.676-1.592 4.577-1.69 6.446-.084 1.611.308 2.546 1.277 2.546.882 0 1.685-.741 2.416-2.353.731-1.611 1.499-4.48 1.59-6.22.082-1.579-.308-2.514-1.308-2.514m-3.29 14.535c-3.409 0-6.145-2.19-5.904-6.8.29-5.543 3.888-10.796 9.736-10.796 3.792 0 6.126 2.578 5.91 6.703-.283 5.383-3.746 10.893-9.741 10.893M40.933 28.048c-.054 1.031.531 1.644 1.59 1.644.793 0 1.607-.387 1.834-1.354l1.005-4.029c-2.521.42-4.326 1.773-4.429 3.739m10.456-7.702l-2.094 8.54c-.337 1.386-.757 2.094-1.876 2.708-.968.547-3.406 1.062-5.405 1.062-3.144 0-6.352-1.062-6.193-4.093.26-4.962 5.723-5.994 10.143-6.767l.524-2.16c.04-.193.044-.29.05-.387.043-.837-.433-1.256-1.14-1.256-1.028 0-1.712.709-2.295 1.74-.55.967-1.46 1.514-2.666 1.514-1.087 0-1.876-.644-1.819-1.74.118-2.256 2.967-4.448 8.05-4.448 2.999 0 5.008 1.483 4.864 4.223-.021.418-.103.87-.143 1.064M63.078 16.607l-.336 1.354c-.077.354-.418.676-.83.676h-2.144l-2.21 9.057c-.073.29-.12.612-.13.805-.05.967.465 1.225 1.2 1.225.176 0 .354-.032.5-.032.5 0 .745.386.717.902-.067 1.289-1.782 2.062-3.781 2.062-1.763 0-4.106-.74-3.945-3.803.027-.515.107-.901.184-1.256l2.203-8.96h-1.263c-.383 0-.603-.29-.58-.709.003-.064.04-.226.078-.387l.335-1.353c.078-.355.39-.677.8-.677h1.382l.484-1.934c.145-.547.308-.838.698-.999l4.082-1.611c.24-.097.479-.162.567-.162.323 0 .487.226.472.517-.001.032-.005.096-.042.257l-.97 3.932h2.027c.382 0 .604.258.582.677-.003.064-.007.129-.08.419M74.176 20.764c-.97 0-1.68-.483-1.95-1.514-.246-.903-.655-1.515-1.536-1.515-1.117 0-1.782.902-1.834 1.9-.149 2.838 6.134 2.418 5.899 6.898-.173 3.287-2.79 6.123-7.522 6.123-4.027 0-5.757-2.32-5.663-4.124.072-1.354.944-2.289 2.355-2.289 1.117 0 1.732.58 2.061 1.612.33.999.71 1.611 1.679 1.611 1 0 1.781-.902 1.835-1.934.147-2.804-5.919-2.578-5.698-6.8.169-3.222 2.707-5.672 7.322-5.672 3.556 0 5.337 1.901 5.25 3.577-.064 1.193-.905 2.127-2.198 2.127"/>
        <path fill="#43559C" d="M77.253 32.396c-.948 0-1.677-.848-1.624-1.844.072-1.38 1.174-2.482 2.43-2.482.947 0 1.695.87 1.644 1.845-.072 1.378-1.212 2.481-2.45 2.481M88.704 25.313c-.735 0-1.134-.487-1.247-1.293-.086-.594-.271-1.103-.909-1.103-1.218 0-2.23 2.311-2.326 4.157-.072 1.378.338 2.396 1.518 2.396.87 0 1.561-.637 2.052-1.146.286-.275.503-.381.774-.381.387 0 .662.275.634.806-.072 1.378-1.801 3.753-4.798 3.753-2.205 0-3.8-1.675-3.66-4.347.21-3.987 2.584-7.231 6.2-7.231 2.398 0 3.496 1.569 3.434 2.757-.04.763-.492 1.632-1.672 1.632M96.583 22.938c-.54 0-1.048.445-1.503 1.378-.541 1.103-1.048 3.012-1.112 4.242-.056 1.06.202 1.675.841 1.675.58 0 1.108-.488 1.59-1.548.48-1.06.985-2.948 1.045-4.093.055-1.04-.204-1.654-.86-1.654m-2.165 9.564c-2.243 0-4.043-1.441-3.884-4.474.191-3.648 2.557-7.105 6.406-7.105 2.494 0 4.03 1.697 3.887 4.412-.186 3.54-2.464 7.167-6.409 7.167M102.142 32.396c-.948 0-1.677-.848-1.625-1.844.073-1.38 1.174-2.482 2.431-2.482.948 0 1.695.87 1.644 1.845-.072 1.378-1.213 2.481-2.45 2.481"/>
        <path fill="#211300" d="M117.037 21.941l-2.034 8.207c-.197.806-.471 1.23-1.148 1.612-.995.552-2.765.721-3.828.721-1.682 0-4.133-.466-4.009-2.841.015-.276.068-.552.14-.807l1.747-7.167c.073-.276.295-.446.547-.446h2.552c.25 0 .397.17.383.446-.005.085-.03.19-.053.275l-1.724 7.041c-.025.127-.05.233-.057.36-.03.573.381.849.864.849.697 0 1.16-.36 1.31-.997l1.863-7.528c.074-.276.295-.446.546-.446h2.572c.251 0 .398.17.383.446-.005.085-.029.19-.054.275M127.84 22.111l-4.177 4.03 1.972 5.195c.033.085.081.276.075.403-.015.297-.218.467-.469.467h-2.766c-.386 0-.476-.128-.593-.488l-1.118-3.393a7.75 7.75 0 0 1-.276-1.38h-.038l-1.18 4.815c-.073.276-.295.446-.546.446h-2.533c-.251 0-.397-.17-.383-.446.005-.085.029-.19.054-.276l3.729-15.057c.071-.275.293-.445.544-.445h2.514c.251 0 .397.17.383.445-.005.085-.03.191-.054.276l-2.188 8.928h.039l3.713-4.072c.185-.211.384-.339.656-.339h2.493c.233 0 .418.149.404.425-.008.17-.174.381-.256.466M129.671 16.622h.229c.281 0 .422-.1.422-.305 0-.228-.146-.322-.457-.322h-.194v.627zm.299-1.031c.673 0 1.013.24 1.013.68 0 .304-.181.538-.497.632l.521 1.03h-.709l-.439-.93h-.188v.93h-.644v-2.342h.943zm-1.253-.041c-.345.346-.528.79-.528 1.26 0 .456.17.877.498 1.212.334.345.774.532 1.242.532.457 0 .896-.175 1.236-.504.334-.321.515-.76.515-1.24 0-.47-.17-.897-.492-1.224a1.719 1.719 0 0 0-1.253-.528c-.474 0-.89.17-1.218.492zm2.752-.235c.393.399.598.926.598 1.494 0 .592-.222 1.124-.633 1.517-.421.404-.954.62-1.505.62a2.095 2.095 0 0 1-1.517-.65 2.116 2.116 0 0 1-.614-1.487c0-.568.228-1.118.65-1.534a2.066 2.066 0 0 1 1.481-.604c.591 0 1.131.223 1.54.644z"/>
    </g>
</svg>
