<svg xmlns="http://www.w3.org/2000/svg" width="76" height="50" viewBox="0 0 76 50">
    <path fill="#606994" fill-rule="evenodd" d="M51.355 29.325l-.013.039-.014-.005c-3.192 4.035-8.094 6.642-13.59 6.68-7.445.054-13.864-4.62-16.449-11.226l-.016-.018.007-.006a17.7 17.7 0 0 1-1.205-6.316C20.006 8.73 27.832.73 37.493.66c.924-.006 1.833.06 2.721.195l.013-.003v.005c8.38 1.272 14.866 8.564 14.928 17.37a17.696 17.696 0 0 1-3.8 11.098zm0 0c2.747-8.54-.91-17.944-9.286-20.705l-1.955 4.256c4.099 3.502 5.253 9.269 3.672 14.163l-2.678-3.76c-5.064 1.82-10.678-.092-14.082-3.932l4.608-.445c.96-5.335 5.404-9.232 10.403-10.294L40.227.857l-.013-.002C31.493 2.713 25.2 10.643 27.018 19.348h.006l-5.744 5.441.01.024c5.946 6.692 15.937 8.174 22.51 2.247l-.004-.007 7.532 2.306.027-.034zm-7.57-2.286l.011.014-.013-.004c0-.004.002-.007.003-.01zm-16.76-7.693v.001h.001zm34.776 20.089v2.516h-8.277v1.447h8.237v2.09h-8.237v1.425h8.277v2.599l-17.063.009-6.35-4.268c-.22.183-.62.285-.84.346 1.039.387 1.139 1.203 1.139 2.18v1.733h-3.335v-1.508c0-.754-.159-1.08-.679-1.08h-5.88v2.588H11.49l3.125-5.93h3.894l-1.768 3.342h3.794l-3.434-7.479h4.433l3.954 8.365v-8.365h7.848l3.095-.021c.848 0 1.708.51 2.006 1.386.14.305.29 1.14.25 2.13l6.05-3.516 17.064.01zm-33.008 5.053h5.802c.298 0 .707-.132.737-.428 0 0 .14-.346.14-.795 0-.305-.1-.764-.14-.907-.18-.305-.44-.386-.738-.386h-5.801v2.517zm21.456-4.361l-6.51 4.188 6.51 4.148v-8.336zm12.072 9.4V39.456h10.297c1.017 0 1.93.573 2.47 1.52.102.18.45.54.45 2.207 0 1.031-.322 1.98-1.453 2.437.86.343 1.363 1.046 1.413 2.175v1.732h-3.547v-1.52c0-.752-.232-1.063-.746-1.063h-5.593v2.583h-3.29zm3.29-5.035h5.709c.296 0 .682-.115.732-.426 0 0 .168-.326.168-.752 0-.343-.115-.8-.168-.947-.179-.31-.422-.376-.732-.376h-5.708v2.5zM.753 49.472V39.421h7.624c1.44 0 2.346.082 2.651.082 1.747 0 2.92 1.106 2.92 3.676 0 2.52-1.033 3.69-2.932 3.69-.459 0-1.491.049-2.602.049H4.03v2.554H.752zm3.277-4.993h4.398c.447 0 2.04.032 2.217-.504 0 0 .09-.44.09-.764 0-.31-.05-.65-.101-.797-.281-.488-1.9-.455-2.206-.455H4.029v2.52z"/>
</svg>
