<svg xmlns="http://www.w3.org/2000/svg" width="143" height="31" viewBox="0 0 143 31">
    <path fill="#606994" fill-rule="evenodd" d="M70.45 3.972c-12.238-4.388-8.591 2.674-8.591 2.674l-.37.083c-5.072-10.31 8.556-3.24 8.556-3.24l.404.483zm2.121-1.835l-1.213 1.277-1.21-1.277L71.358.86l1.213 1.277zm5.812 11.818H64.299l-.472-1.245h14.985l-.429 1.245zm-7.044-1.984l-.039.002h-7.749L61.76 7.354l.339-.096s6.804 4.845 9.213-2.344l.015.01c2.41 7.19 9.216 2.345 9.216 2.345l.337.097-1.79 4.605h-7.75zm.853-8.003l.405-.482s13.628-7.07 8.556 3.239l-.37-.084s3.646-7.062-8.59-2.673zm-48.69 22.038l-1.506 4.132h-2.902l4.594-12.6h13.488a1.31 1.31 0 0 1 1.234 1.759l-1.72 4.72c-.372 1.15-1.638 2.034-2.847 1.989l.615 4.132h-2.994l-.614-4.132h-7.348zm.993-2.722h9.56l1.102-3.023h-9.56l-1.102 3.023zM129.52 20.26l-.808 2.217h10.357a1.311 1.311 0 0 1 1.235 1.759l-1.43 3.912c-.37 1.15-1.636 2.035-2.844 1.99h-13.013l.992-2.721h12.232l.809-2.218h-10.07a1.511 1.511 0 0 1-1.423-2.03l1.328-3.642c.372-1.15 1.637-2.035 2.847-1.99h13.012l-.992 2.723H129.52zm-5.752-2.722l-.992 2.722h-12.232l-.81 2.217h10.36a1.31 1.31 0 0 1 1.233 1.758l-1.427 3.913c-.37 1.15-1.637 2.035-2.846 1.99h-13.013l.993-2.722h12.231l.808-2.218h-10.068a1.512 1.512 0 0 1-1.424-2.03l1.328-3.641c.371-1.15 1.638-2.035 2.847-1.99h13.012zm-38.546 12.6l4.595-12.6h14.975l-.992 2.722H91.726l-.808 2.217h11.501l-.992 2.721h-11.5l-.81 2.218h12.073l-.993 2.721H85.222zm-16.134 0a1.309 1.309 0 0 1-1.234-1.758l3.227-8.853c.372-1.15 1.637-2.034 2.847-1.989h12.046l-.992 2.722H73.715l-2.61 7.156h11.267l-.992 2.721H69.088zm-24.045 0l4.594-12.6h3.951l7.861 9.91 3.614-9.91h2.901l-4.593 12.6h-3.985l-7.84-9.878-3.602 9.877h-2.9zm-6.743 0l4.593-12.6h2.901l-4.593 12.6H38.3zm-35.4 0H0l4.594-12.6H17.97a1.31 1.31 0 0 1 1.234 1.759l-1.72 4.719c-.373 1.149-1.638 2.033-2.848 1.989H4.407l-1.506 4.132zm11.95-6.855l1.102-3.023h-9.45L5.4 23.284h9.45z"/>
</svg>
