<svg xmlns="http://www.w3.org/2000/svg" width="476" height="459" viewBox="0 0 476 459">
    <g fill="none" fill-rule="evenodd">
        <path stroke="#6D708E" stroke-linecap="square" stroke-width=".678" d="M8 81l174.215-.2H475.4v298.4H.499M300.6 1.139V159.66M387.8 1.139V159.66M300.6 299.539V458.06M387.8 299.539V458.06"/>
        <g fill="#FFF" opacity=".649">
            <text font-family="HelveticaNeue, Helvetica Neue" font-size="12" letter-spacing=".6" transform="translate(235 313.8)">
                <tspan x="3.1" y="31.2">Power </tspan> <tspan x=".982" y="47.2">Cruise</tspan> <tspan x="39.022" y="47.2">r</tspan>
            </text>
            <text font-family="HelveticaNeue, Helvetica Neue" font-size="12" letter-spacing=".6" transform="translate(235 313.8)">
                <tspan x="175.666" y="31.2">Narrow </tspan> <tspan x="172.618" y="47.2">&amp; Hous</tspan> <tspan x="215.338" y="47.2">e</tspan>
            </text>
            <text font-family="HelveticaNeue, Helvetica Neue" font-size="12" letter-spacing=".6" transform="translate(235 313.8)">
                <tspan x="2.314" y="120.8">Sailin</tspan> <tspan x="34.798" y="120.8">g</tspan>
            </text>
            <text font-family="HelveticaNeue, Helvetica Neue" font-size="12" letter-spacing=".6" transform="translate(235 313.8)">
                <tspan x="89.922" y="120.8">Sport</tspan> <tspan x="122.478" y="120.8">s</tspan>
            </text>
            <text font-family="HelveticaNeue, Helvetica Neue" font-size="12" letter-spacing=".6" transform="translate(235 313.8)">
                <tspan x="88.476" y="31.2">Fishing</tspan> <tspan x="89.082" y="47.2">&amp; Wor</tspan> <tspan x="124.29" y="47.2">k</tspan>
            </text>
            <text font-family="HelveticaNeue, Helvetica Neue" font-size="12" letter-spacing=".6" transform="translate(235 313.8)">
                <tspan x="174.286" y="120.8">Tender</tspan> <tspan x="214.114" y="120.8">s</tspan>
            </text>
            <path d="M250.499 324.791l-1.47-4.006a.627.627 0 0 1 .029-.49c.038-.116.163-.212.374-.289l1.096-.374v-2.825c0-.327.125-.615.374-.865.25-.25.538-.375.865-.375h1.845l.461-1.527h2.767l.461 1.527h1.845c.327 0 .615.125.865.375s.375.538.375.865v2.825l1.095.374c.211.077.336.173.375.289.077.192.086.355.029.49l-1.47 4.006h-.03c-.903 0-1.729-.413-2.478-1.24-.75.827-1.566 1.24-2.45 1.24-.903 0-1.72-.403-2.45-1.21-.73.807-1.557 1.21-2.48 1.21h-.028zm1.268-7.984v2.421l3.69-1.182 3.69 1.182v-2.421h-7.38zm6.14 7.84c.134.135.307.303.519.504.211.202.59.476 1.138.822.548.346 1.023.519 1.427.519h-.605c-.692 0-1.518-.25-2.48-.75a5.196 5.196 0 0 1-2.45.606 5.196 5.196 0 0 1-2.45-.606c-.96.5-1.787.75-2.478.75h-.606c.423 0 .89-.154 1.398-.461.51-.308.918-.615 1.225-.923l.462-.461c.749.519 1.566.778 2.45.778.884 0 1.7-.26 2.45-.778zM250.499 412.791l-1.47-4.006a.627.627 0 0 1 .029-.49c.038-.116.163-.212.374-.289l1.096-.374v-2.825c0-.327.125-.615.374-.865.25-.25.538-.375.865-.375h1.845l.461-1.527h2.767l.461 1.527h1.845c.327 0 .615.125.865.375s.375.538.375.865v2.825l1.095.374c.211.077.336.173.375.289.077.192.086.355.029.49l-1.47 4.006h-.03c-.903 0-1.729-.413-2.478-1.24-.75.827-1.566 1.24-2.45 1.24-.903 0-1.72-.403-2.45-1.21-.73.807-1.557 1.21-2.48 1.21h-.028zm1.268-7.984v2.421l3.69-1.182 3.69 1.182v-2.421h-7.38zm6.14 7.84c.134.135.307.303.519.504.211.202.59.476 1.138.822.548.346 1.023.519 1.427.519h-.605c-.692 0-1.518-.25-2.48-.75a5.196 5.196 0 0 1-2.45.606 5.196 5.196 0 0 1-2.45-.606c-.96.5-1.787.75-2.478.75h-.606c.423 0 .89-.154 1.398-.461.51-.308.918-.615 1.225-.923l.462-.461c.749.519 1.566.778 2.45.778.884 0 1.7-.26 2.45-.778zM338.499 324.791l-1.47-4.006a.627.627 0 0 1 .029-.49c.038-.116.163-.212.374-.289l1.096-.374v-2.825c0-.327.125-.615.374-.865.25-.25.538-.375.865-.375h1.845l.461-1.527h2.767l.461 1.527h1.845c.327 0 .615.125.865.375s.375.538.375.865v2.825l1.095.374c.211.077.336.173.375.289.077.192.086.355.029.49l-1.47 4.006h-.03c-.903 0-1.729-.413-2.478-1.24-.75.827-1.566 1.24-2.45 1.24-.903 0-1.72-.403-2.45-1.21-.73.807-1.557 1.21-2.48 1.21h-.028zm1.268-7.984v2.421l3.69-1.182 3.69 1.182v-2.421h-7.38zm6.14 7.84c.134.135.307.303.519.504.211.202.59.476 1.138.822.548.346 1.023.519 1.427.519h-.605c-.692 0-1.518-.25-2.48-.75a5.196 5.196 0 0 1-2.45.606 5.196 5.196 0 0 1-2.45-.606c-.96.5-1.787.75-2.478.75h-.606c.423 0 .89-.154 1.398-.461.51-.308.918-.615 1.225-.923l.462-.461c.749.519 1.566.778 2.45.778.884 0 1.7-.26 2.45-.778zM338.499 412.791l-1.47-4.006a.627.627 0 0 1 .029-.49c.038-.116.163-.212.374-.289l1.096-.374v-2.825c0-.327.125-.615.374-.865.25-.25.538-.375.865-.375h1.845l.461-1.527h2.767l.461 1.527h1.845c.327 0 .615.125.865.375s.375.538.375.865v2.825l1.095.374c.211.077.336.173.375.289.077.192.086.355.029.49l-1.47 4.006h-.03c-.903 0-1.729-.413-2.478-1.24-.75.827-1.566 1.24-2.45 1.24-.903 0-1.72-.403-2.45-1.21-.73.807-1.557 1.21-2.48 1.21h-.028zm1.268-7.984v2.421l3.69-1.182 3.69 1.182v-2.421h-7.38zm6.14 7.84c.134.135.307.303.519.504.211.202.59.476 1.138.822.548.346 1.023.519 1.427.519h-.605c-.692 0-1.518-.25-2.48-.75a5.196 5.196 0 0 1-2.45.606 5.196 5.196 0 0 1-2.45-.606c-.96.5-1.787.75-2.478.75h-.606c.423 0 .89-.154 1.398-.461.51-.308.918-.615 1.225-.923l.462-.461c.749.519 1.566.778 2.45.778.884 0 1.7-.26 2.45-.778zM427.299 324.791l-1.47-4.006a.627.627 0 0 1 .029-.49c.038-.116.163-.212.374-.289l1.096-.374v-2.825c0-.327.125-.615.374-.865.25-.25.538-.375.865-.375h1.845l.461-1.527h2.767l.461 1.527h1.845c.327 0 .615.125.865.375s.375.538.375.865v2.825l1.095.374c.211.077.336.173.375.289.077.192.086.355.029.49l-1.47 4.006h-.03c-.903 0-1.729-.413-2.478-1.24-.75.827-1.566 1.24-2.45 1.24-.903 0-1.72-.403-2.45-1.21-.73.807-1.557 1.21-2.48 1.21h-.028zm1.268-7.984v2.421l3.69-1.182 3.69 1.182v-2.421h-7.38zm6.14 7.84c.134.135.307.303.519.504.211.202.59.476 1.138.822.548.346 1.023.519 1.427.519h-.605c-.692 0-1.518-.25-2.48-.75a5.196 5.196 0 0 1-2.45.606 5.196 5.196 0 0 1-2.45-.606c-.96.5-1.787.75-2.478.75h-.606c.423 0 .89-.154 1.398-.461.51-.308.918-.615 1.225-.923l.462-.461c.749.519 1.566.778 2.45.778.884 0 1.7-.26 2.45-.778zM427.299 412.791l-1.47-4.006a.627.627 0 0 1 .029-.49c.038-.116.163-.212.374-.289l1.096-.374v-2.825c0-.327.125-.615.374-.865.25-.25.538-.375.865-.375h1.845l.461-1.527h2.767l.461 1.527h1.845c.327 0 .615.125.865.375s.375.538.375.865v2.825l1.095.374c.211.077.336.173.375.289.077.192.086.355.029.49l-1.47 4.006h-.03c-.903 0-1.729-.413-2.478-1.24-.75.827-1.566 1.24-2.45 1.24-.903 0-1.72-.403-2.45-1.21-.73.807-1.557 1.21-2.48 1.21h-.028zm1.268-7.984v2.421l3.69-1.182 3.69 1.182v-2.421h-7.38zm6.14 7.84c.134.135.307.303.519.504.211.202.59.476 1.138.822.548.346 1.023.519 1.427.519h-.605c-.692 0-1.518-.25-2.48-.75a5.196 5.196 0 0 1-2.45.606 5.196 5.196 0 0 1-2.45-.606c-.96.5-1.787.75-2.478.75h-.606c.423 0 .89-.154 1.398-.461.51-.308.918-.615 1.225-.923l.462-.461c.749.519 1.566.778 2.45.778.884 0 1.7-.26 2.45-.778z"/>
        </g>
        <g fill="#CCC3B2">
            <text font-family="HelveticaNeue, Helvetica Neue" font-size="12" letter-spacing=".6" transform="translate(221.2 19.8)">
                <tspan x="89.756" y="37.6">SELL BOAT</tspan>
            </text>
            <text font-family="HelveticaNeue, Helvetica Neue" font-size="12" letter-spacing=".6" transform="translate(221.2 19.8)">
                <tspan x="5.026" y="37.6">CHARTER</tspan>
            </text>
            <text font-family="HelveticaNeue, Helvetica Neue" font-size="12" letter-spacing=".6" transform="translate(221.2 19.8)">
                <tspan x="184.052" y="37.6">FINANCE</tspan>
            </text>
            <text font-family="HelveticaNeue, Helvetica Neue" font-size="12" letter-spacing=".6" transform="translate(221.2 19.8)">
                <tspan x=".716" y="120.8">MOORINGS</tspan>
            </text>
            <text font-family="HelveticaNeue, Helvetica Neue" font-size="12" letter-spacing=".6" transform="translate(221.2 19.8)">
                <tspan x="100.042" y="120.8">VIDEOS</tspan>
            </text>
            <text font-family="HelveticaNeue, Helvetica Neue" font-size="12" letter-spacing=".6" transform="translate(221.2 19.8)">
                <tspan x="175.55" y="120.8">SUPPLIERS</tspan>
            </text>
            <path d="M259.839 27.22v3.043h-3.044V27.22h3.044zm-1.015-6.595h1.522v1.014h.761c.338 0 .634.127.888.38.254.254.38.55.38.888v8.625c0 .338-.126.634-.38.888-.254.253-.55.38-.888.38h-9.639c-.338 0-.634-.127-.888-.38a1.217 1.217 0 0 1-.38-.888v-8.625c0-.338.127-.634.38-.887.254-.254.55-.38.888-.38h.761v-1.015h1.522v1.014h5.073v-1.014zm2.283 10.907V24.81h-9.639v6.722h9.64zM339.4 23.686a1.14 1.14 0 0 0-1.143-1.143 1.14 1.14 0 0 0-1.143 1.143 1.14 1.14 0 0 0 1.143 1.143 1.14 1.14 0 0 0 1.143-1.143zm9.527 5.143c0 .303-.125.598-.33.803l-4.384 4.393c-.215.205-.51.33-.813.33a1.15 1.15 0 0 1-.804-.33l-6.383-6.393c-.456-.446-.813-1.312-.813-1.946V21.97a1.15 1.15 0 0 1 1.143-1.142h3.714c.634 0 1.5.357 1.956.812l6.383 6.375c.206.214.33.509.33.813zM352.72 105.683a58.812 58.812 0 0 1 0 6.525c0 .691-.218 1.276-.655 1.753-.437.478-.97.717-1.601.717-1.565.081-3.385.122-5.458.122-2.074 0-3.893-.04-5.458-.122-.63 0-1.164-.239-1.6-.717-.438-.477-.657-1.062-.657-1.753a58.812 58.812 0 0 1-.091-3.262c0-.712.04-1.8.122-3.263 0-.691.213-1.276.64-1.753a2.042 2.042 0 0 1 1.586-.717 96.145 96.145 0 0 1 5.184-.122h.548c1.972 0 3.7.04 5.184.122.63 0 1.164.239 1.6.717.438.477.656 1.062.656 1.753zm-9.208 6.25l4.421-2.987-4.421-3.02v6.008zM434.631 102.403c.36 0 .678.138.953.413.275.275.413.593.413.953v9.465c0 .36-.138.678-.413.953-.275.275-.593.413-.953.413h-9.465c-.36 0-.678-.138-.953-.413-.275-.275-.413-.593-.413-.953v-9.465c0-.36.138-.678.413-.953.275-.275.593-.413.953-.413h9.465zm-6.098 9.497l6.098-6.098-.953-.953-5.145 5.145-2.414-2.445-.953.953 3.367 3.398zM257.186 102.752a.536.536 0 0 0-.532-.532.536.536 0 0 0-.533.532c0 .291.241.532.533.532a.536.536 0 0 0 .532-.532zm6.921 7.72v2.928a.272.272 0 0 1-.166.25.418.418 0 0 1-.1.016.293.293 0 0 1-.191-.075l-.774-.773c-1.306 1.572-3.652 2.579-6.222 2.579-2.57 0-4.917-1.007-6.223-2.58l-.773.774a.278.278 0 0 1-.192.075.418.418 0 0 1-.1-.016.272.272 0 0 1-.166-.25v-2.928c0-.15.116-.266.266-.266h2.928c.109 0 .208.066.25.166.042.1.017.208-.058.291l-.832.832c.749 1.007 2.188 1.739 3.835 1.963v-5.382h-1.597a.536.536 0 0 1-.533-.532v-1.065c0-.291.241-.533.533-.533h1.597v-1.356a2.122 2.122 0 0 1-1.065-1.838c0-1.173.957-2.13 2.13-2.13s2.13.957 2.13 2.13c0 .79-.433 1.472-1.066 1.838v1.356h1.598c.29 0 .532.242.532.533v1.065a.536.536 0 0 1-.532.532h-1.598v5.382c1.648-.224 3.087-.956 3.835-1.963l-.832-.832a.272.272 0 0 1-.058-.291.272.272 0 0 1 .25-.166h2.928c.15 0 .266.116.266.266zM431.008 27.715l4.13 4.129a5.81 5.81 0 0 1-9.937-4.084 5.81 5.81 0 0 1 5.807-5.808v5.763zm1.414.045h5.846c0 1.61-.658 3.078-1.724 4.13l-4.122-4.13zm5.362-.968h-5.808v-5.808a5.81 5.81 0 0 1 5.808 5.808z"/>
        </g>
        <text fill="#FFF" font-family="HelveticaNeue-Light, Helvetica Neue" font-size="16" font-weight="300" letter-spacing="1" opacity=".544">
            <tspan x="93.308" y="371.2">Boat type</tspan> <tspan x="168.996" y="371.2">s</tspan>
        </text>
        <text fill="#CCC3B2" font-family="HelveticaNeue-Light, Helvetica Neue" font-size="16" font-weight="300" letter-spacing=".889">
            <tspan x="102.446" y="73.6">Service</tspan> <tspan x="159.068" y="73.6" letter-spacing=".79">s</tspan>
        </text>
    </g>
</svg>
