<svg xmlns="http://www.w3.org/2000/svg" width="127" height="21" viewBox="0 0 127 21">
    <path fill="#606994" fill-rule="evenodd" d="M.621.847h3.672l-.106 8.372.061.024c.262-.308.525-.615.785-.924 2.02-2.395 4.042-4.788 6.054-7.19.17-.202.338-.288.606-.285 1.124.016 2.25.007 3.374.007h.334l-.224 8.372.114.092c.03-.072.041-.16.09-.216 2.349-2.664 4.702-5.324 7.046-7.992a.691.691 0 0 1 .592-.262c.928.014 1.856.006 2.784.006h.346c-.221.243-.397.439-.575.632-3.132 3.396-6.265 6.793-9.401 10.185-.07.077-.186.157-.281.158-1.312.01-2.625.006-3.937.005-.042 0-.085-.012-.16-.023l.33-8.109a16.334 16.334 0 0 0-.053-.025c-.068.075-.139.147-.204.225C9.705 6.475 7.542 9.05 5.384 11.63a.498.498 0 0 1-.427.207c-1.214-.008-2.428-.004-3.641-.004h-.287c-.024-.582-.05-1.14-.07-1.697-.097-2.77-.192-5.542-.29-8.313-.005-.13-.031-.26-.048-.39V.846zM126.43.74c-.054.138-.097.282-.163.414-.21.422-.44.834-.638 1.261-.096.208-.217.277-.446.277-2.642-.008-5.284-.018-7.926 0a6.39 6.39 0 0 0-2.909.71c-.415.215-.676.532-.705 1.023-.026.424.156.746.575.837.329.072.671.106 1.008.108 1.793.013 3.588-.023 5.38.03.759.023 1.526.164 2.263.353.95.245 1.255.71 1.117 1.787-.182 1.416-.953 2.46-2.222 3.134-1.57.835-3.261 1.182-5.024 1.19-3.106.014-6.212.004-9.318.004-.068 0-.137-.01-.248-.017.157-.349.297-.671.446-.99.147-.311.227-.733.476-.896.238-.156.656-.046.994-.046 2.553-.002 5.105.002 7.658-.003.77-.002 1.538-.05 2.257-.358.64-.274.978-.804 1.135-1.455.064-.262-.075-.5-.398-.57-.51-.11-1.034-.203-1.554-.213-1.615-.03-3.231.011-4.845-.039-.67-.02-1.344-.164-2-.317-1.35-.313-1.588-1.541-1.366-2.495.118-.508.394-.928.734-1.312.829-.939 1.778-1.724 3.042-1.962 1.022-.193 2.066-.272 3.1-.403.104-.013.207-.034.311-.052h9.266zm-19.656 19.52c-.164-.039-.328-.073-.49-.117-.684-.186-1.015-.612-1.04-1.38.173 0 .347-.012.518.006.053.006.132.09.138.144.033.33.223.54.511.66.506.21 1.026.219 1.537.02.316-.123.461-.347.442-.629-.021-.308-.248-.416-.501-.472-.59-.132-1.191-.223-1.774-.379a1.01 1.01 0 0 1-.569-1.591c.147-.202.392-.372.629-.465.617-.241 1.258-.224 1.886-.018.533.175.791.538.83 1.158-.166 0-.332.01-.495-.006-.052-.005-.13-.071-.14-.12-.069-.335-.308-.485-.604-.574a1.891 1.891 0 0 0-1.207.036c-.292.105-.469.33-.461.56.007.238.183.427.515.5.469.103.944.181 1.415.273.114.022.227.05.337.083.402.122.7.348.776.788.08.465-.064.871-.448 1.12-.297.191-.665.273-1.002.403h-.803zm-89.55 0c-.064-.024-.127-.053-.193-.072-.576-.163-.942-.66-.906-1.255.004-.064.094-.162.158-.175.135-.027.28-.008.435-.008.013.113.02.2.032.285.066.472.364.714.848.69.474-.022.742-.278.75-.758.013-.87.006-1.74.008-2.61v-.337h.63v2.564c0 1.111-.118 1.29-1.119 1.676h-.643zm85.892-8.437h-3.38l4.104-8.404-.048-.035c-.363.38-.729.758-1.09 1.139-2.277 2.393-4.552 4.788-6.832 7.178-.06.064-.16.126-.243.127-1.151.008-2.302.005-3.496.005l-.336-8.493-.059-.016c-.044.1-.09.2-.132.3-1.1 2.66-2.203 5.32-3.297 7.982-.072.177-.162.234-.35.232-1.018-.01-2.036-.005-3.053-.005h-.299c.21-.461.404-.888.6-1.314 1.459-3.163 2.919-6.325 4.376-9.489.062-.132.105-.24.297-.24 1.571.01 3.142.006 4.713.007.052 0 .104.009.187.016l.283 8.402c.075-.053.128-.08.166-.12 2.593-2.706 5.184-5.415 7.78-8.119.083-.086.218-.172.33-.173 1.57-.011 3.141-.007 4.712-.006.034 0 .067.01.14.02-1.695 3.68-3.383 7.34-5.073 11.006zM80.566.83l1.969 10.986h-3.827c-.049-.414-.1-.833-.147-1.253-.04-.37-.092-.74-.108-1.112-.01-.229-.105-.276-.312-.275-1.589.007-3.177.003-4.765.003-.643 0-1.285-.009-1.927.008a.638.638 0 0 0-.392.165c-.791.77-1.567 1.555-2.356 2.327a.516.516 0 0 1-.316.149c-1.107.01-2.213.007-3.32.006-.033 0-.066-.008-.146-.02.35-.325.671-.626.995-.923 3.609-3.323 7.218-6.645 10.83-9.964.066-.061.163-.124.247-.125 1.16-.007 2.32-.003 3.48 0 .025 0 .05.014.095.028zm-2.942 2.143l-4.43 4.296h4.941l-.51-4.296zm-20.301 7.07c-.281.6-.533 1.147-.798 1.687-.028.056-.141.1-.215.1-1.963.004-3.925.015-5.888-.007a5.874 5.874 0 0 1-2.648-.656c-.78-.401-1.233-1.306-1.055-2.156.204-.976.648-1.858 1.054-2.755a891.977 891.977 0 0 1 2.39-5.236c.043-.092.161-.212.246-.214 1.097-.014 2.194-.01 3.332-.01-.068.158-.123.292-.184.424-.835 1.796-1.68 3.587-2.5 5.39-.27.595-.534 1.206-.692 1.836-.183.731.18 1.244.926 1.42.413.097.843.164 1.267.17 1.471.02 2.943.008 4.415.008h.35zm-12.581.012c-.255.577-.486 1.115-.733 1.645-.03.065-.145.129-.22.129-1.972.005-3.944.011-5.916-.004a5.801 5.801 0 0 1-2.72-.692c-.805-.43-1.2-1.12-1.009-2.06.123-.603.33-1.2.582-1.764.931-2.084 1.9-4.152 2.845-6.23.078-.173.17-.233.358-.231 1 .009 1.999.004 2.998.004.07 0 .138.006.24.01-.264.567-.516 1.112-.771 1.657-.65 1.383-1.314 2.759-1.944 4.15-.263.58-.479 1.183-.672 1.789-.217.682.25 1.25.942 1.411a5.84 5.84 0 0 0 1.24.167c1.508.018 3.016.005 4.524.004.07 0 .139.008.256.015zm13.799 1.78c.288-.63.553-1.209.82-1.788 1.384-3.001 2.77-6.002 4.147-9.007.088-.191.188-.251.396-.249 1.07.012 2.14.005 3.26.005-.046.114-.076.2-.114.282-1.61 3.494-3.224 6.987-4.829 10.484-.096.21-.205.282-.436.279-1.061-.014-2.123-.006-3.244-.006zm-34.1-.018l1.04-2.256c1.282-2.765 2.57-5.526 3.837-8.297.142-.31.292-.432.642-.422.936.028 1.874.01 2.81.01h.302l-.799 1.725-4.178 9.02c-.06.129-.103.244-.297.242-1.07-.01-2.141-.005-3.212-.006-.035 0-.07-.007-.144-.016zm42.364 5.036v3.277h-.62v-4.13c.236 0 .466-.014.692.009.079.007.164.094.222.164.809.981 1.614 1.966 2.42 2.949.045.054.093.106.188.214v-3.321h.628v4.133c-.222 0-.436.02-.644-.009-.095-.013-.195-.107-.263-.189-.834-1.006-1.663-2.017-2.493-3.027l-.068-.08-.062.01zm9.614 3.25V16.03c.038-.01.07-.028.103-.028.686 0 1.373-.018 2.058.007 1.088.04 1.64.548 1.804 1.621.074.482.044.958-.122 1.417-.221.612-.648 1.018-1.312 1.048-.833.037-1.67.009-2.531.009zm.641-3.512v2.97c.577 0 1.137.025 1.695-.007.472-.027.784-.309.925-.761.149-.48.15-.963 0-1.44-.14-.438-.438-.728-.902-.755-.566-.031-1.135-.007-1.718-.007zm21.778 1.574c.333.142.431.428.457.754.015.194.005.393.04.583.039.208.115.409.184.644-.166 0-.4.017-.628-.011-.058-.007-.126-.153-.14-.243-.05-.323-.064-.653-.118-.975-.052-.307-.255-.5-.568-.509-.567-.017-1.136-.005-1.732-.005v1.725h-.621v-4.09c.003-.004.016-.026.03-.026.89.008 1.78-.006 2.67.037.47.023.817.289.926.781.108.491.022.918-.427 1.217-.021.015-.04.035-.058.055-.005.005-.004.016-.015.063zm-2.491-1.63v1.328c.6 0 1.178.012 1.755-.005.418-.012.63-.238.643-.628.014-.41-.183-.667-.605-.687-.592-.028-1.187-.007-1.793-.007zm-6.578-.52v.547h-2.747v1.18h2.583v.564H87.02v1.266h2.799v.56h-3.43v-4.118h3.38zm-64.077 2.3v1.254h2.803v.56h-3.426V16.02h3.37v.545h-2.744v1.175h2.567c.016.072.031.113.033.155.019.417.018.42-.411.42h-2.192zm31.803 1.263h1.321c.393 0 .786.015 1.178-.005.246-.013.349.063.312.31-.012.077-.011.156-.017.25h-3.42v-4.116h3.357v.548h-2.745c0 .369-.01.712.01 1.054.003.048.148.126.229.127.687.01 1.374.007 2.06.007h.283v.553h-2.568v1.272zm-19.653-3.56v.545h-1.591v3.572h-.626v-3.557h-1.572v-.56h3.79zm11.125.55H47.39v-.553h3.786v.548h-1.581v3.568h-.63v-3.563z"/>
</svg>
