<?xml version="1.0" encoding="utf-8"?>
<!-- Generator: Adobe Illustrator 21.0.0, SVG Export Plug-In . SVG Version: 6.00 Build 0)  -->
<svg version="1.1" id="Layer_1" xmlns="http://www.w3.org/2000/svg" xmlns:xlink="http://www.w3.org/1999/xlink" x="0px" y="0px"
	 width="13px" height="13px" viewBox="0 0 13 13" style="enable-background:new 0 0 13 13;" xml:space="preserve">
<g id="Layer_2">
	<path class="st0" d="M1.5,10.8L0,6.8C0,6.6,0,6.4,0.1,6.3c0-0.1,0.2-0.2,0.4-0.3l1.1-0.4V2.8c0-0.3,0.1-0.6,0.4-0.9
		c0.2-0.2,0.5-0.4,0.9-0.4h1.8L5.1,0h2.8l0.5,1.5h1.8c0.3,0,0.6,0.1,0.9,0.4s0.4,0.5,0.4,0.9v2.8L12.5,6c0.2,0.1,0.3,0.2,0.4,0.3
		c0.1,0.2,0.1,0.4,0,0.5l-1.5,4h0c-0.9,0-1.7-0.4-2.5-1.2c-0.8,0.8-1.6,1.2-2.4,1.2c-0.9,0-1.7-0.4-2.4-1.2
		C3.3,10.4,2.5,10.8,1.5,10.8L1.5,10.8L1.5,10.8z M2.8,2.8v2.4L6.5,4l3.7,1.2V2.8C10.1,2.8,2.8,2.8,2.8,2.8z M8.9,10.6
		C9,10.8,9.2,11,9.4,11.2c0.2,0.2,0.6,0.5,1.1,0.8c0.5,0.3,1,0.5,1.4,0.5h-0.6c-0.7,0-1.5-0.2-2.5-0.8c-0.8,0.4-1.6,0.6-2.4,0.6
		c-0.9,0-1.7-0.2-2.4-0.6c-1,0.5-1.8,0.8-2.5,0.8H0.9c0.4,0,0.9-0.2,1.4-0.5c0.5-0.3,0.9-0.6,1.2-0.9L4,10.6
		c0.7,0.5,1.6,0.8,2.4,0.8S8.2,11.2,8.9,10.6z"/>
</g>
</svg>
