<svg xmlns="http://www.w3.org/2000/svg" width="19" height="19" viewBox="0 0 19 19">
    <path fill="#000000" fill-rule="evenodd" d="M9.5 8.44c.283 0 .53.106.742.318.212.212.318.46.318.742 0 .283-.106.53-.318.742-.212.212-.46.318-.742.318-.283 0-.53-.106-.742-.318A1.017 1.017 0 0 1 8.44 9.5c0-.283.106-.53.318-.742.212-.212.46-.318.742-.318zM9.5 0c2.601 0 4.835.933 6.7 2.8C18.068 4.664 19 6.898 19 9.5s-.933 4.835-2.8 6.7c-1.865 1.867-4.099 2.8-6.7 2.8s-4.835-.933-6.7-2.8C.932 14.336 0 12.102 0 9.5s.933-4.835 2.8-6.7C4.664.932 6.898 0 9.5 0zm2.078 11.578l3.605-7.761-7.761 3.605-3.605 7.761 7.761-3.605z"/>
</svg>
