<?xml version="1.0" encoding="utf-8"?>
<!-- Generator: Adobe Illustrator 21.0.0, SVG Export Plug-In . SVG Version: 6.00 Build 0)  -->
<svg version="1.1" id="Layer_1" xmlns="http://www.w3.org/2000/svg" xmlns:xlink="http://www.w3.org/1999/xlink" x="0px" y="0px"
	 width="100px" height="100px" viewBox="0 0 100 100" style="enable-background:new 0 0 100 100;" xml:space="preserve">
<path d="M25.6,50.5c0,2.2,1.8,4.1,4.1,4.1h40c2.2-0.1,4-2,3.9-4.3c-0.1-2.1-1.8-3.8-3.9-3.9h-40C27.4,46.4,25.6,48.2,25.6,50.5
	C25.6,50.5,25.6,50.5,25.6,50.5z M42.8,73.9c0,2.2,1.8,4.1,4,4.1h5.7c2.2,0,4-1.8,4-4.1c0-2.2-1.8-4.1-4-4.1h-5.7
	C44.6,69.9,42.8,71.7,42.8,73.9z M5,27.1c0,2.2,1.8,4.1,4.1,4.1h81.2c2.2,0,4.1-1.8,4.1-4c0,0,0,0,0,0c0-2.2-1.8-4.1-4.1-4.1H9.1
	C6.8,23,5,24.8,5,27.1C5,27,5,27.1,5,27.1z"/>
</svg>
