<svg xmlns="http://www.w3.org/2000/svg" width="18" height="19" viewBox="0 0 18 19">
    <path fill="#000000" fill-rule="evenodd" d="M17.38 10.263c.78.764.824 1.485.13 2.163-2.775 2.913-4.597 4.623-5.464 5.132C10.746 18.519 9.3 19 7.71 19c-1.186 0-2.241-.34-3.166-1.018-.925-.678-1.561-1.54-1.908-2.587v-.042l-.044-.043v-.085L.077 7.21a1.168 1.168 0 0 1 .043-.933c.145-.311.376-.523.694-.636a1.08 1.08 0 0 1 .911.063c.29.156.491.389.607.7l1.475 3.732.043.085c.029-.028.043-.07.043-.127L2.94 3.266a1.172 1.172 0 0 1 .195-.891c.188-.283.441-.452.76-.509.317-.056.62.014.91.212.29.198.463.453.52.764L6.41 8.694h.086V1.187c0-.31.123-.586.369-.827C7.11.12 7.39 0 7.71 0c.318 0 .6.12.845.36.246.24.369.516.369.828l.347 7.421c.029.113.086.128.173.043l.998-5.726c.057-.31.216-.572.477-.784.26-.212.549-.304.867-.276a1.3 1.3 0 0 1 .802.488c.217.268.311.558.282.87l-.91 7.294c-.087.876-.058 1.385.086 1.527.405.424.853.395 1.344-.085l1.822-1.781c.694-.679 1.416-.65 2.168.084z"/>
</svg>
