<?xml version="1.0" encoding="utf-8"?>
<!-- Generator: Adobe Illustrator 21.0.0, SVG Export Plug-In . SVG Version: 6.00 Build 0)  -->
<svg version="1.1" id="Layer_1" xmlns="http://www.w3.org/2000/svg" xmlns:xlink="http://www.w3.org/1999/xlink" x="0px" y="0px"
	 width="100px" height="100px" viewBox="0 0 100 100" style="enable-background:new 0 0 100 100;" xml:space="preserve">
<path d="M50,32.5c0-1.6,1.3-2.9,2.9-2.9h41.2c1.6,0,2.9,1.2,2.9,2.8c0,1.6-1.2,2.9-2.8,2.9c-0.1,0-0.1,0-0.2,0H52.8
	C51.3,35.4,50,34.1,50,32.5C50,32.6,50,32.6,50,32.5z M26.5,49.7c0-1.6,1.3-2.9,2.8-2.9h64.8c1.6,0,2.8,1.3,2.8,2.9
	c0,1.6-1.3,2.9-2.8,2.9H29.3C27.8,52.5,26.5,51.2,26.5,49.7C26.5,49.7,26.5,49.7,26.5,49.7z M3,66.8c0-1.6,1.3-2.9,2.9-2.9h88.2
	c1.6,0,2.9,1.3,2.9,2.9s-1.3,2.9-2.9,2.9H5.9C4.3,69.6,3,68.4,3,66.8C3,66.8,3,66.8,3,66.8z"/>
</svg>
