<?xml version="1.0" encoding="utf-8"?>
<!-- Generator: Adobe Illustrator 21.0.0, SVG Export Plug-In . SVG Version: 6.00 Build 0)  -->
<svg version="1.1" id="Layer_1" xmlns="http://www.w3.org/2000/svg" xmlns:xlink="http://www.w3.org/1999/xlink" x="0px" y="0px"
	 width="22px" height="23px" viewBox="0 0 22 23" style="enable-background:new 0 0 22 23;" xml:space="preserve">
<g>
	<path d="M20.4,19.9l-0.7,0.7c-0.1,0.1-0.3,0.1-0.5,0l-3.4-3.4c-0.1-0.1-0.1-0.3,0-0.5c0,0,0,0,0,0l0.4-0.4l0.3-0.3
		c0.1-0.1,0.3-0.1,0.5,0c0,0,0,0,0,0l3.4,3.4C20.6,19.5,20.6,19.7,20.4,19.9 M9,15.8c-3.7,0-6.7-3-6.7-6.7c0-3.7,3-6.7,6.7-6.7
		c3.7,0,6.7,3,6.7,6.7C15.7,12.8,12.7,15.8,9,15.8 M21.1,18.8l-3.5-3.5c-0.2-0.2-0.5-0.4-0.9-0.4c-0.3,0-0.6,0.1-0.9,0.3l-1.1-1.1
		c1.3-1.4,1.9-3.2,1.9-5.1c0-4.2-3.4-7.6-7.7-7.6S1.3,4.9,1.3,9.1s3.4,7.6,7.7,7.6c2,0,3.8-0.7,5.1-1.9l1.1,1.1L15.1,16
		c-0.2,0.2-0.4,0.5-0.4,0.9c0,0.3,0.1,0.6,0.4,0.9l3.5,3.5c0.2,0.2,0.6,0.4,0.9,0.4s0.6-0.1,0.9-0.4l0.7-0.7
		C21.6,20.1,21.6,19.3,21.1,18.8C21.1,18.8,21.1,18.8,21.1,18.8"/>
	<path d="M19.5,22.1c-0.5,0-0.9-0.2-1.2-0.5l-3.5-3.5c-0.3-0.3-0.5-0.8-0.5-1.2c0-0.3,0.1-0.7,0.3-0.9l-0.5-0.5
		c-1.4,1.1-3.2,1.8-5.1,1.8c-4.5,0-8.2-3.7-8.2-8.1c0-4.5,3.7-8.1,8.2-8.1c4.5,0,8.2,3.7,8.2,8.1c0,1.8-0.6,3.6-1.8,5l0.5,0.5
		c0.2-0.1,0.5-0.2,0.8-0.2c0,0,0,0,0,0c0.5,0,0.9,0.2,1.2,0.5l3.5,3.5l-0.3,0.3l0.3-0.3c0.3,0.3,0.5,0.8,0.5,1.2s-0.2,0.9-0.5,1.2
		l-0.7,0.7C20.4,21.9,20,22.1,19.5,22.1z M20.1,19.5l0.7,0.7v0L20.1,19.5L20.1,19.5L20.1,19.5z M16.3,16.9l3.2,3.2l0.5-0.5l-3.2-3.2
		L16.3,16.9z M16.2,16.7L16.2,16.7C16.2,16.7,16.2,16.7,16.2,16.7z M16.9,16.3L16.9,16.3C16.9,16.3,16.9,16.3,16.9,16.3z M9,2.9
		c-3.4,0-6.2,2.8-6.2,6.2c0,3.4,2.8,6.2,6.2,6.2c3.4,0,6.2-2.8,6.2-6.2C15.2,5.7,12.4,2.9,9,2.9z"/>
</g>
</svg>
