<svg xmlns="http://www.w3.org/2000/svg" width="15" height="22" viewBox="0 0 15 22">
    <path fill="#000000" fill-rule="evenodd" d="M7.5 3.36c2.063 0 3.828.75 5.297 2.25C14.266 7.11 15 8.905 15 11c0 1.5-.39 2.86-1.172 4.078l-1.36-1.406A5.546 5.546 0 0 0 13.126 11c0-1.563-.555-2.906-1.664-4.031C10.35 5.844 9.03 5.28 7.5 5.28v2.86L3.75 4.297 7.5.5v2.86zm0 13.359v-2.86l3.75 3.844L7.5 21.5v-2.86c-2.063 0-3.828-.75-5.297-2.25C.734 14.89 0 13.095 0 11c0-1.563.39-2.922 1.172-4.078l1.36 1.406A5.546 5.546 0 0 0 1.874 11c0 1.563.555 2.906 1.664 4.031C4.65 16.156 5.97 16.72 7.5 16.72z"/>
</svg>
